<?xml version="1.0" encoding="utf-8"?><!-- Uploaded to: SVG Repo, www.svgrepo.com, Generator: SVG Repo Mixer Tools -->
<svg version="1.1" id="Uploaded to svgrepo.com" xmlns="http://www.w3.org/2000/svg" xmlns:xlink="http://www.w3.org/1999/xlink" 
	 width="800px" height="800px" viewBox="0 0 32 32" xml:space="preserve">
<style type="text/css">
	.feather_een{fill:#0B1719;}
</style>
<path class="feather_een" d="M28,15c0,8.837-4.82,17-12,17S4,23.837,4,15S8.82,1,16,1S28,6.163,28,15z M27,15
	c0-8.019-4.215-13-11-13C9.215,2,5,6.981,5,15c0,4.33,1.048,7.903,2.673,10.568l0.202-0.052c7.044-1.824,10.479-5.995,11.868-8.224
	C18.626,17.755,17.353,18,16,18c-4.418,0-8-2.582-8-7s3.582-7,8-7s8,2.582,8,7c0,2.337-1.008,4.153-2.606,5.352
	c-0.495,1.147-3.658,7.583-13.135,10.092C10.356,29.383,13.2,31,16,31C21.407,31,27,25.015,27,15z M23,11c0-4.145-3.516-6-7-6
	c-3.484,0-7,1.855-7,6c0,4.145,3.516,6,7,6C19.484,17,23,15.145,23,11z M14,9c-0.552,0-1,0.448-1,1s0.448,1,1,1s1-0.448,1-1
	S14.552,9,14,9z M18,9c-0.552,0-1,0.448-1,1s0.448,1,1,1s1-0.448,1-1S18.552,9,18,9z"/>
</svg>